#!OML:ASF H:\charlestonDancing\Project 1\Capture day 1\Session 1\femaleDancer.ASF
:FULLY-SPECIFIED
:DEGREES
1026
root -12.5372 8.52198 -0.00190633 -184.682 -92.6078 183.343
lowerback 73.5662 -2.16359 2.21975
upperback 4.76803 -3.76179 -2.1916
thorax -16.412 -2.44804 -1.33522
lowerneck 7.82191 -12.2621 -8.05058
upperneck -34.5633 -15.5661 19.5254
head -9.75398 -9.66663 10.0016
rclavicle 7.95139e-016 2.54444e-014
rhumerus -198.343 160.089 -261.247
rradius 35.597
rwrist 29.5274
rhand -28.2364 -33.2697
rfingers 7.12502
rthumb 178.386 116.757
lclavicle 7.95139e-016 2.54444e-014
lhumerus -28.3297 -8.11165 76.642
lradius 46.5172
lwrist -8.84005
lhand -27.8616 7.34616
lfingers 7.12502
lthumb -1.2522 37.3222
rfemur -80.441 -39.6185 18.135
rtibia 139.622
rfoot -57.8112 4.31847
rtoes -16.0673
lfemur -77.1099 20.2535 -19.9911
ltibia 139.13
lfoot -49.0008 -24.2772
ltoes -19.7957
1027
root -12.5367 8.59229 -0.00576668 -183.85 -92.7235 182.822
lowerback 73.1996 -2.22668 1.94342
upperback 4.70394 -4.00886 -2.17177
thorax -16.5247 -2.52056 -1.07326
lowerneck 8.3547 -13.1065 -8.36371
upperneck -34.7827 -16.6307 20.6097
head -9.58575 -10.3179 10.4868
rclavicle -3.97569e-015 -1.39149e-014
rhumerus -198.031 159.417 -261.428
rradius 35.3535
rwrist 29.4762
rhand -28.5365 -33.3307
rfingers 7.12502
rthumb 178.096 116.698
lclavicle -3.97569e-015 -1.39149e-014
lhumerus -28.5359 -7.62419 76.4548
lradius 46.386
lwrist -9.01579
lhand -28.074 7.56272
lfingers 7.12502
lthumb -1.45743 37.5375
rfemur -80.4502 -38.0353 18.2689
rtibia 139.149
rfoot -57.2794 3.24788
rtoes -16.6257
lfemur -77.1528 19.2598 -19.9737
ltibia 138.623
lfoot -48.8008 -23.6728
ltoes -20.462
1028
root -12.5381 8.66976 -0.00964568 -182.43 -92.844 181.875
lowerback 72.6622 -2.35521 1.50895
upperback 4.62412 -4.41886 -2.07757
thorax -16.6598 -2.64762 -0.572998
lowerneck 8.69776 -13.6949 -9.03894
upperneck -34.7338 -17.3942 21.6523
head -9.27952 -10.778 10.9306
rclavicle 7.15625e-015 3.97569e-016
rhumerus -197.637 157.886 -261.62
rradius 35.2653
rwrist 28.9767
rhand -28.5297 -33.2962
rfingers 7.12502
rthumb 178.103 116.732
lclavicle 7.15625e-015 3.97569e-016
lhumerus -28.854 -6.50986 76.2289
lradius 46.2309
lwrist -9.2429
lhand -28.0176 7.8867
lfingers 7.12502
lthumb -1.40291 37.8618
rfemur -80.6493 -36.2957 18.4611
rtibia 138.637
rfoot -56.6584 2.56107
rtoes -16.8238
lfemur -77.3336 18.2007 -19.949
ltibia 138.076
lfoot -48.6079 -23.0265
ltoes -21.2652
1029
root -12.543 8.73782 -0.0122304 -181.42 -93.0183 181.465
lowerback 71.8372 -2.46305 1.47507
upperback 4.69828 -4.53372 -2.12609
thorax -16.6296 -2.67318 -0.559069
lowerneck 8.58125 -14.5338 -8.83245
upperneck -34.5877 -18.4568 22.183
head -8.96682 -11.4011 10.9922
rclavicle 1.51076e-014 9.14409e-015
rhumerus -197.325 157.71 -261.724
rradius 35.2573
rwrist 28.8599
rhand -28.7101 -33.5173
rfingers 7.12502
rthumb 177.928 116.513
lclavicle 1.51076e-014 9.14409e-015
lhumerus -28.6777 -6.50386 76.094
lradius 46.0902
lwrist -9.22275
lhand -27.5791 8.18981
lfingers 7.12502
lthumb -0.979398 38.1673
rfemur -80.4669 -35.4326 18.424
rtibia 138.088
rfoot -56.6331 3.03662
rtoes -15.9922
lfemur -77.7222 16.8743 -19.9377
ltibia 137.582
lfoot -48.3732 -22.2785
ltoes -21.8885
1030
root -12.5472 8.82457 -0.0124094 -181.07 -93.2478 181.827
lowerback 70.8643 -2.66592 1.40518
upperback 4.76162 -4.75859 -2.12946
thorax -16.6127 -2.73791 -0.419374
lowerneck 8.36605 -15.1838 -8.88963
upperneck -34.3028 -19.3036 22.648
head -8.6011 -11.8771 11.0269
rclavicle 5.80451e-014 -6.36111e-015
rhumerus -197.006 157.555 -261.797
rradius 35.2879
rwrist 29.1045
rhand -29.0032 -33.9115
rfingers 7.12502
rthumb 177.645 116.122
lclavicle 5.80451e-014 -6.36111e-015
lhumerus -28.6466 -6.29962 76.0133
lradius 46.0974
lwrist -9.18044
lhand -27.1512 8.39088
lfingers 7.12502
lthumb -0.566133 38.3699
rfemur -80.5676 -34.1392 18.4885
rtibia 137.456
rfoot -56.3224 2.76834
rtoes -15.9809
lfemur -78.126 15.2844 -19.9873
ltibia 136.944
lfoot -48.1049 -21.3606
ltoes -22.4598
1031
root -12.549 8.92135 -0.0129372 -179.88 -93.4236 181.41
lowerback 69.8687 -2.84005 1.2734
upperback 4.76916 -4.98544 -2.10346
thorax -16.6535 -2.79928 -0.216606
lowerneck 8.36479 -15.6285 -9.01453
upperneck -34.1798 -19.8637 23.1563
head -8.36581 -12.2159 11.1452
rclavicle 3.18055e-014 2.94201e-014
rhumerus -196.789 157.321 -261.893
rradius 35.4109
rwrist 29.3899
rhand -29.2358 -34.1841
rfingers 7.12502
rthumb 177.421 115.852
lclavicle 3.18055e-014 2.94201e-014
lhumerus -28.7552 -5.92065 75.9291
lradius 46.1911
lwrist -9.1653
lhand -27.0474 8.54128
lfingers 7.12502
lthumb -0.465871 38.5205
rfemur -80.9035 -32.4414 18.7306
rtibia 136.748
rfoot -55.7824 1.85074
rtoes -16.4139
lfemur -78.6129 13.9676 -20.0131
ltibia 136.226
lfoot -47.7495 -20.4195
ltoes -23.2147
1032
root -12.5514 9.02053 -0.0157052 -178.738 -93.5184 181.107
lowerback 68.7713 -2.84951 1.27692
upperback 4.83198 -4.94839 -2.13138
thorax -16.6241 -2.7654 -0.271141
lowerneck 8.31964 -16.1485 -8.66189
upperneck -34.2776 -20.4795 23.5192
head -8.27439 -12.6131 11.1864
rclavicle 7.15625e-015 -2.66371e-014
rhumerus -196.655 158.067 -261.935
rradius 35.5634
rwrist 30.0105
rhand -29.1877 -34.0497
rfingers 7.12502
rthumb 177.467 115.986
lclavicle 7.15625e-015 -2.66371e-014
lhumerus -28.569 -6.06701 75.8854
lradius 46.1887
lwrist -9.0439
lhand -27.0595 8.13308
lfingers 7.12502
lthumb -0.477543 38.1123
rfemur -81.3515 -30.758 19.0352
rtibia 136.003
rfoot -55.1347 0.939601
rtoes -16.6707
lfemur -79.2793 12.9965 -20.0696
ltibia 135.417
lfoot -47.0315 -19.8738
ltoes -23.3978
1033
root -12.5564 9.1317 -0.0173928 -174.524 -93.6729 177.86
lowerback 67.4849 -3.09626 1.17203
upperback 4.85106 -5.21037 -2.02608
thorax -16.6311 -2.8431 0.0315643
lowerneck 8.24948 -16.2749 -9.13177
upperneck -34.1326 -20.6429 24.0292
head -8.03799 -12.7237 11.3463
rclavicle 3.18055e-014 -1.19271e-014
rhumerus -196.405 157.736 -262.102
rradius 35.6572
rwrist 30.526
rhand -28.8757 -33.7139
rfingers 7.12502
rthumb 177.768 116.318
lclavicle 3.18055e-014 -1.19271e-014
lhumerus -28.7924 -5.12019 75.7416
lradius 46.2774
lwrist -8.90861
lhand -26.9183 7.54271
lfingers 7.12502
lthumb -0.341143 37.5222
rfemur -81.7933 -28.991 19.5297
rtibia 135.148
rfoot -54.4439 0.358975
rtoes -16.1815
lfemur -80.1527 12.0576 -19.9108
ltibia 134.49
lfoot -46.0629 -19.737
ltoes -22.8367
1034
root -12.5611 9.26305 -0.0151134 -167.965 -93.9579 172.375
lowerback 66.0125 -3.41302 1.56453
upperback 4.89688 -5.21572 -1.99396
thorax -16.6111 -2.83825 -0.0957341
lowerneck 8.09418 -16.5444 -9.02176
upperneck -34.0487 -20.963 24.2517
head -7.90336 -12.923 11.3409
rclavicle -2.8625e-014 -1.11319e-014
rhumerus -196.335 157.726 -262.177
rradius 35.723
rwrist 30.5854
rhand -28.6559 -33.6584
rfingers 7.12502
rthumb 177.981 116.371
lclavicle -2.8625e-014 -1.11319e-014
lhumerus -28.8109 -4.92936 75.7253
lradius 46.4593
lwrist -8.60187
lhand -26.644 7.64835
lfingers 7.12502
lthumb -0.0762731 37.6281
rfemur -82.2027 -27.1798 20.1702
rtibia 134.112
rfoot -53.8498 -0.2848
rtoes -15.8201
lfemur -81.1528 10.9085 -19.4464
ltibia 133.522
lfoot -45.0392 -19.6182
ltoes -21.5646
